<?xml version="1.0" encoding="UTF-8"?>
<svg width="557" height="212" viewBox="0 0 557 212" fill="none" xmlns="http://www.w3.org/2000/svg">
  <path d="M78.17 209.15H52.32L0 68.85h37.28l30.46 91h.2l32.67-91h35.88l-58.32 140.3Z" fill="#fff"/>
  <path fill="#fff" d="M151.51 68.85h32.47v140.3h-32.47z"/>
  <path fill="#9e005d" d="m171.95 48 29-48 26 32-55 16z"/>
  <path d="M278.98 153.83v-26.86h65.34v55.32c-15.23 20.64-37.88 29.26-62.53 29.26-42.29 0-74.56-29.66-74.56-72.55s33.27-72.55 74.36-72.55c24.65 0 44.69 9.82 60.93 28.66l-22.45 19.64c-9.62-11.62-22.45-20.24-38.28-20.24-23.25 0-40.09 19.84-40.09 44.49s15.43 44.49 39.89 44.49c10.22 0 21.85-4.41 30.26-12.43v-17.24h-32.87Z" fill="#fff"/>
  <path fill="#fff" d="M370.56 209.15V68.85h32.47v140.3h-32.47z"/>
  <path d="m519.67 209.15-8.22-24.65h-46.3l-8.82 24.65h-35.88l58.32-140.3h25.85l52.31 140.3h-37.28Zm-45.1-50.51h28.06l-13.43-40.49h-.2l-14.43 40.49Z" fill="#fff"/>
</svg>